<mxfile host="app.diagrams.net" modified="2023-11-15T07:37:17.796Z" agent="Mozilla/5.0 (Windows NT 10.0; Win64; x64) AppleWebKit/537.36 (KHTML, like Gecko) Chrome/119.0.0.0 Safari/537.36" version="22.1.1" etag="MsQxb0O8T7kFK216rvZa" type="github">
  <diagram name="第 1 页" id="l_VDj7RniCNkkYwKN7s-">
    <mxGraphModel>
      <root>
        <mxCell id="0" />
        <mxCell id="1" parent="0" />
      </root>
    </mxGraphModel>
  </diagram>
</mxfile>
